<svg xmlns="http://www.w3.org/2000/svg" xmlns:xlink="http://www.w3.org/1999/xlink" width="624" height="799" viewBox="0 0 624 799">
  <defs>
    <clipPath id="clip-path">
      <rect id="Rectangle_2" data-name="Rectangle 2" width="624" height="799" fill="#fff" stroke="#707070" stroke-width="1"/>
    </clipPath>
  </defs>
  <g id="Mask_Group_1" data-name="Mask Group 1" clip-path="url(#clip-path)">
    <g id="WhatsApp-Image-2020-05-01-at-11.58.31-PM" transform="translate(-245 -210)">
      <path id="Path_1" data-name="Path 1" d="M0-637.727V4.545H1068.636V-1280H0Zm1044.14,0v500.772H24.5V-1138.5H1044.14Z" transform="translate(0 1280)"/>
      <path id="Path_2" data-name="Path 2" d="M315.2-1002.2l-21.2.2.2,37.7.3,37.6,176-.1c96.8,0,187.1-.1,200.8-.1L696-927v-75H669.8C461.6-1002.4,332.5-1002.4,315.2-1002.2Zm9,11.4c4.3,1.3,11.8,8.8,11.8,11.8,0,1-1.9,2.5-4.9,4l-5,2.3-2.6-3.2c-3.3-3.8-8.3-4.3-11.4-1-4.1,4.4-4.1,20.2,0,24.5a7.977,7.977,0,0,0,11.9-.3l2.1-2.7,4.7,2.4c2.5,1.4,4.7,3,4.9,3.7.6,1.7-5.2,7.8-9.1,9.7-2,1-6,1.6-9.8,1.6-13.1-.1-18.7-6.7-19.6-23.5-.6-11.3.9-17.9,5-23C307.7-991.1,315.6-993.4,324.2-990.8Zm47.5,1.4c8.5,6.2,8.3,23.8-.3,28.5-1.3.7-2.4,1.6-2.4,2.1s2.3,5.3,5,10.9l5.1,10-7.2-.3-7.2-.3-3.1-8-3.1-8-.3,8.3-.3,8.3-6.2-.3-6.2-.3-.3-25.4c-.2-13.9-.1-26,.2-26.8.5-1.3,2.6-1.5,12-1.2C367.1-991.5,369.3-991.2,371.7-989.4ZM400-965v27H388v-54h12Zm35.2-26a20.261,20.261,0,0,1,11.4,9.3c1.6,2.9,1.5,3.1-.7,4.8a26.992,26.992,0,0,1-5.2,3c-2.7,1.1-3.1,1-5.4-1.9a7.693,7.693,0,0,0-11.4-1.3c-2.1,1.7-2.4,3-2.7,10a64.008,64.008,0,0,0,.2,10.6c1.7,6.6,8.8,8.6,13.8,3.8l2.8-2.7,4.2,2.4c6.1,3.3,6.1,3.3,3.6,7.1-3.7,5.5-9.9,8.1-18.4,7.7-6-.3-7.7-.8-10.9-3.2-6-4.6-7.5-9.1-7.5-23.1,0-13.8,1.5-18.5,7.2-22.8C422.3-992,427.7-993,435.2-991Zm41.5.1c9.5,3.6,13.4,16.9,7.8,26.6-3,5-6.8,7.3-12.5,7.3h-4v19H455v-54h9.4C469.6-992,475.1-991.5,476.7-990.9Zm58,23.9c3.9,13.5,7.4,25.5,7.8,26.7.5,2.2.3,2.3-6.4,2.3h-6.9l-2.3-6.8-2.4-6.7H513.7l-2.1,6.5-2.1,6.5-6.7.3c-7.9.3-7.7.5-4.9-8.9,1-3.5,3.8-12.9,6.1-20.9s4.8-16.7,5.7-19.3l1.5-4.8,8.1.3,8.1.3Zm35.1-13c3.4,6.3,6.7,11.9,7.2,12.4.7.7,1-3.6,1-11.7v-12.8l6.3.3,6.2.3.3,26.8.2,26.8-6.6-.3-6.6-.3-6.7-12-6.6-12-.3,12.2-.3,12.3H551v-54.1l6.2.3,6.2.3Zm53.8-8.4a27.81,27.81,0,0,1,7.5,6.9c6.9,10.2,6,28.5-1.9,36.9-4.7,5-9.6,6.6-20.4,6.6H599v-54.2l9.9.4C617.7-991.5,619.3-991.1,623.6-988.4Zm54.3,7.6c1.8,6.2,5.3,18,7.7,26.1,2.4,8.2,4.4,15.3,4.4,15.8s-3.1.9-6.8.9h-6.8l-2.3-7-2.2-7H661.1l-2.2,7-2.3,7h-6.8c-3.7,0-6.8-.2-6.8-.5s3.4-12.2,7.5-26.4c4.1-14.3,7.5-26.2,7.5-26.5s3.8-.6,8.3-.6h8.4Z" transform="translate(9.862 1281.048)"/>
      <path id="Path_3" data-name="Path 3" d="M718-989.1c-13.1,4-20.4,16.8-17.8,31a25.221,25.221,0,0,0,13.3,18.4c6.3,3.3,16.5,3.1,22.8-.6,15.8-9.3,17.7-32,3.7-44C734.2-989.2,725.1-991.2,718-989.1Zm12.3,4.2c4.7,1.3,11.5,7.2,13.4,11.6,2,4.9,1.7,15.6-.6,20.2-5.1,9.9-16.4,14.5-25.9,10.5-13.9-5.8-18.3-24.6-8.3-35.7C715-985.1,722-987.2,730.3-984.9Z" transform="translate(15.18 1281.074)"/>
      <path id="Path_4" data-name="Path 4" d="M714.4-977.7c-.2.7-.3,7.4-.2,14.8.3,13,.4,13.4,2.6,13.7,2.1.3,2.2,0,2.2-5.7V-961h4.4c5.2,0,6.4,1.2,6.8,7,.3,4.1.5,4.5,3.2,4.8,2.3.3,2.8,0,2.2-1.3a23.311,23.311,0,0,1-.6-5.5,9.223,9.223,0,0,0-1.6-5.5c-1.5-1.5-1.5-1.7,0-3.4,1.8-2,2.1-7.3.6-10.1-1.3-2.5-6.2-4-13.2-4C716.9-979,714.8-978.6,714.4-977.7Zm15.2,5.2c2,2.7.5,5.4-3.6,6.6-5.4,1.6-7,.7-7-3.9,0-2.1.3-4.2.8-4.6C721-975.7,728.3-974.3,729.6-972.5Z" transform="translate(15.07 1281.094)"/>
      <path id="Path_5" data-name="Path 5" d="M376-864c0,.5,1.6,1,3.5,1,2,0,3.4.5,3.3,1.1-.2.5,1.3,1.6,3.2,2.3,9.5,3.3,12.5,5.6,7.5,5.6-1.4,0-2.5-.5-2.5-1,0-.6-1.3-1-2.8-1a6.647,6.647,0,0,1-3.7-.9c-2.9-2.8-36-2.8-39,0a6.647,6.647,0,0,1-3.7.9c-1.5,0-2.8.4-2.8.9s-2.1,1.9-4.7,3.2c-4.5,2.1-13.3,10.2-13.3,12.1a.915.915,0,0,1-1,.8c-.5,0-1,.7-1,1.5s-.4,1.5-1,1.5c-.5,0-1,1.1-1,2.5,0,1.5-.6,2.5-1.4,2.5-1.4,0-2,2.1-3.5,12-1,6.3-.2,24,1.1,24,.4,0,.8,1.1.8,2.5s.7,2.8,1.5,3.1a2.539,2.539,0,0,1,1.5,1.9,2.2,2.2,0,0,0,1.3,1.8c.7.2.8.8.3,1.3s-1.1.4-1.3-.4c-.3-.6-.9-1.2-1.4-1.2-1.3,0-5.9-4.6-5.9-5.9a2.415,2.415,0,0,0-1.4-1.8c-.7-.4-1.9-2.6-2.7-4.8l-1.3-4L304-799c-1.2,7.9,2.1,25.9,4.9,26.8a1.945,1.945,0,0,1,1.1,1.8c0,.8,1.1,2.7,2.4,4.1,1.4,1.5,2.3,3,2,3.5-.3.4,0,.8.6.8s2.3,1.1,3.8,2.5,3.2,2.5,3.9,2.5,1.3.4,1.3,1c0,.5-1.3,1-3,1-1.6,0-3-.5-3-1,0-.6-.9-1-2-1-2.7,0-2.5,1.3.5,3.6,1.4,1,2.5,2.3,2.5,2.9,0,.5,1.5,2.1,3.2,3.5a77.269,77.269,0,0,1,6,5.2c1.5,1.6,3.5,2.8,4.3,2.8,1.9,0,1.2,3.8-1.1,5.6a3.4,3.4,0,0,0-1.4,2.3,1.028,1.028,0,0,1-1,1.1c-.5,0-1,1.1-1,2.4,0,1.4-.4,2.8-1,3.1-.5.3-1,1.7-1,3s-.4,2.7-1,3a2.817,2.817,0,0,0-1,2.1c0,1,.5.9,2-.6a6.781,6.781,0,0,0,2-3.1c0-1.7,13.1-13.9,15-13.9.5,0,.7-.7.4-1.5-.5-1.1.1-1.5,1.8-1.5a5.321,5.321,0,0,0,3.8-2,5.305,5.305,0,0,1,3.7-2c1.3,0,2.3-.6,2.3-1.3.1-.6,2.4-2.3,5.2-3.6a32.123,32.123,0,0,0,7-4.3,16.126,16.126,0,0,1,4.9-3c1.6-.5,2.9-1.6,2.9-2.3,0-.8.9-1.7,2-2s3.2-2.3,4.7-4.3c1.6-2,3.1-3.9,3.4-4.2,1.6-1.4,6-10.2,5.4-10.8-.4-.4-1-.1-1.2.5a1.935,1.935,0,0,1-1.5,1.3c-.5,0-2.5,1.6-4.4,3.5-1.8,1.9-4,3.5-4.9,3.5-.8,0-1.5.4-1.5,1,0,.5-.7,1-1.5,1s-1.5.4-1.5,1c0,.5-.9,1-1.9,1a2.452,2.452,0,0,0-2.3,1.1c-.2.6-2.2,1.7-4.3,2.5-4.8,1.6-5.5,1.7-5.5.4,0-.6.7-1,1.5-1a1.538,1.538,0,0,0,1.5-1.5,1.442,1.442,0,0,1,1.3-1.5,4.605,4.605,0,0,0,2.7-2,4.6,4.6,0,0,1,2.7-2c.7,0,1.2-.3,1-.8-.1-.4,1.3-2.1,3.1-3.8a19.256,19.256,0,0,0,3.2-3.7,22.108,22.108,0,0,1,3.5-4c1.9-1.9,3.5-4,3.5-4.6,0-.7,1.2-2.5,2.8-4,1.5-1.5,3.6-4,4.7-5.4,1.1-1.5,2.5-2.7,3.1-2.7s2-1.1,3-2.5a6.118,6.118,0,0,1,4.1-2.5c1.3,0,2.3-.5,2.3-1,0-.6.9-1,2-1a2.941,2.941,0,0,0,2.6-1.5,2.528,2.528,0,0,1,2-1.5c.8,0,1.4-.5,1.4-1,0-.6-3.2-1-7.7-1-7.4,0-7.6-.1-5.7-1.8,3-2.8,12.2-6.3,18-6.9,3-.3,5.5-1.1,5.8-1.9.5-1.4-4.5-4.4-7.6-4.4a1.687,1.687,0,0,1-1.8-1.5c0-1-1-1.5-3.4-1.5-1.9,0-3.8-.5-4.1-1-.3-.6.3-1,1.4-1,1.2,0,2.1-.5,2.1-1,0-.6,2.7-1,6-1,4.5,0,6.2-.4,6.6-1.5s2.1-1.5,5.9-1.5,5.5.4,5.9,1.5c.3,1,1.9,1.5,4.6,1.5,5,0,5.3-1.8,1-6.3-1.6-1.8-3-3.5-3-4,0-.4-.4-.7-1-.7a8.83,8.83,0,0,1-3.2-1.9c-1.3-1.1-3.4-2.9-4.8-4.1a38.484,38.484,0,0,0-6.5-4.2,28.874,28.874,0,0,1-4.5-2.7,19.309,19.309,0,0,0-3.5-2c-1.6-.7-3.8-1.7-4.7-2.2a12.825,12.825,0,0,0-4.8-.9c-1.9,0-2.9-.5-2.7-1.3.1-.8-1.3-1.3-4-1.5-2.4-.2-4.3-.7-4.3-1.3,0-.5-3.6-.9-8-.9C379.3-865,376-864.6,376-864Z" transform="translate(7.232 1281.668)"/>
      <path id="Path_6" data-name="Path 6" d="M653.5-864c-.3.5-2.6,1-5.1,1-3,0-4.6.5-5,1.5-.4.8-1.9,1.5-3.4,1.5-1.6,0-3.2.4-3.5,1-.3.5-1.7,1-3.1,1-1.3,0-2.4.4-2.4,1,0,.5-.7,1-1.5,1s-1.5.4-1.5,1c0,.5-1.5,1.6-3.2,2.5-5.4,2.4-9.7,5.7-16.4,12.2-2.4,2.4-4.7,4.3-5.1,4.3-1,0-3.5,6.2-2.8,6.9.3.2.5-.1.5-.7,0-.8,1.7-1.2,4.5-1.2,3.1,0,4.7-.5,5.1-1.5.4-1.1,2.1-1.5,5.9-1.5,3.4,0,5.7.5,6.5,1.5s3.1,1.5,6.4,1.5c4.6.1,8.6,1.6,8.6,3.4,0,.3-1.5.6-3.4.6-2.1,0-3.6.6-4,1.5a2.705,2.705,0,0,1-2.3,1.5,8.514,8.514,0,0,0-4.1,1.6c-3.1,2.2-1.4,4,4.5,4.9,5.6.8,13.9,4,16,6a4.864,4.864,0,0,0,2.5,1.5c.6,0,.8.3.5.6-.4.4-4.2.6-8.6.5-4.7-.1-8.2.2-8.6.8-.4.7.4,1.1,1.8,1.1a5.457,5.457,0,0,1,3.7,1.5,4.571,4.571,0,0,0,2.9,1.5,7.287,7.287,0,0,1,3.9,2,7.168,7.168,0,0,0,3.7,2,1.442,1.442,0,0,1,1.5,1.3c0,.8,1.2,2,2.6,2.8a16.882,16.882,0,0,1,5.1,5.2,14.86,14.86,0,0,0,3.8,4.4,2.257,2.257,0,0,1,1.5,1.9c0,.8.5,1.4,1,1.4a.945.945,0,0,1,1,1c0,1.1,1.7,3.3,6.5,8.5,1.7,1.8,3.5,3.9,4.1,4.7,1.9,2.2,5.4,4.8,6.4,4.8.6,0,1,.6,1,1.4s1,1.6,2.3,1.9c2,.3,2.1.4.3,1.2a4.063,4.063,0,0,1-3.7-.3A8.074,8.074,0,0,0,676-761c-1.1,0-2-.7-2-1.5s-.9-1.5-2-1.5-2-.5-2-1c0-.6-.7-1-1.5-1s-1.5-.5-1.5-1c0-.6-.9-1-2-1s-2-.6-2-1.4-1.4-2-3-2.8c-1.7-.7-3.3-2.2-3.6-3.2-.6-1.7-.7-1.8-1.6-.3-.6,1.1-.4,2.5.8,4.2.9,1.4,1.3,2.5,1,2.5-.6,0,2.8,4,9,10.3a45.633,45.633,0,0,0,10,8c1.2.7,4,2.4,6.2,3.9,2.3,1.6,4.9,2.8,5.7,2.8a2.4,2.4,0,0,1,2.1,1.3c.3.8,2,2,3.9,2.7,1.9.8,3.5,1.7,3.5,2.2,0,.4.7.8,1.5.8a1.538,1.538,0,0,1,1.5,1.5,1.538,1.538,0,0,0,1.5,1.5c1.8,0,14.6,12.5,16,15.5.8,1.8.9,1.7,1.3-.9.2-1.6-.1-3.3-.7-3.9a4.749,4.749,0,0,1-1.1-3c0-1-.4-1.6-.8-1.3-.5.3-1.4-1.1-2.1-3-.7-1.8-1.7-3.4-2.2-3.4-1.4,0-1.1-4,.5-5.6a5.147,5.147,0,0,1,3-1.4,1.483,1.483,0,0,0,1.6-1.4,2.428,2.428,0,0,1,1.8-2,7.306,7.306,0,0,0,3.2-3.1c.7-1.4,1.7-2.5,2.2-2.5,1.3,0,3.8-2.6,3.8-3.9a1.1,1.1,0,0,1,1-1.1,1,1,0,0,0,1-1c0-.6-.9-1-2-1s-2,.4-2,1c0,.5-1.2,1-2.6,1-2.9,0-2.8-1.8.1-3.4,2.4-1.4,4.5-3.3,4.5-4.1,0-.9,2.7-3.5,3.7-3.5s5.3-9.2,5.3-11.3a2.013,2.013,0,0,1,1.2-1.9c1.2-.4,2.6-8.8,2.7-16.6.1-3.6-.2-4.2-1.9-4.2a1.8,1.8,0,0,0-2,2,11.655,11.655,0,0,1-1.2,4.2c-1.6,2.8-8.8,10.1-9.4,9.6-.6-.6,1.9-5.8,2.9-5.8.4,0,.7-1.5.7-3.4,0-2.1.6-3.6,1.5-4,1.2-.4,1.5-2.8,1.5-13,0-10.1-.3-12.5-1.5-13-.9-.3-1.5-1.8-1.5-3.6,0-1.6-.4-3-1-3-.5,0-1-1-1-2.3-.1-2.4-2.2-5.7-3.7-5.7-.6,0-1.6-1.2-2.2-2.8-2-4.6-5.5-7.8-11.9-10.9-3.4-1.6-5.9-3.3-5.5-3.6.3-.4-.8-.7-2.5-.7-1.8,0-3.2-.4-3.2-.9,0-1-9.9-2.1-18-2.2-9.4,0-27,2.7-27,4.2,0,.5-1.1.9-2.5.9s-2.5-.3-2.5-.6c0-1.2,3.4-3.3,5.3-3.4.9,0,1.7-.5,1.7-1,0-.6,1.4-1,3-1q3,0,3-1.5c0-.9.9-1.5,2.5-1.5,1.4,0,2.5-.5,2.5-1,0-.6-2.8-1-6.4-1S653.8-864.6,653.5-864Z" transform="translate(14.33 1281.666)"/>
      <path id="Path_7" data-name="Path 7" d="M396.5-702c-.3.5-1.7,1-3.1,1-1.3,0-2.4.5-2.4,1,0,.6-.8,1.3-1.7,1.7-2.9,1-5.3,3.5-5.3,5.5,0,1-.3,1.8-.7,1.8-1.3,0-3.3,5.2-3.3,8.3,0,1.5-.4,2.6-.9,2.3-1.3-.8-2.4,2.5-1.2,3.7,1.1,1.1,4.1-1.4,4.1-3.3a5.077,5.077,0,0,1,1.5-2.6,13.884,13.884,0,0,0,2.2-2.9c1.2-1.9,4.9-2.4,4.4-.5-.2.8-.6,2.8-.9,4.3-.2,1.6-1.1,3.1-1.8,3.4-2.1.8-2,20.9.1,22.9a6.381,6.381,0,0,1,1.5,3.7c0,1.1,1,4,2.1,6.4,1.2,2.4,1.9,4.7,1.6,5-.9.8-6.7-2-6.7-3.3a5.984,5.984,0,0,0-2-2.9,5.775,5.775,0,0,1-2-3.2c0-.7-.4-1.3-1-1.3-.5,0-1-.9-1-2s-.7-2-1.5-2c-1,0-1.5-1-1.5-3.1,0-1.7-.4-2.8-1-2.4s-1,5.5-1,12,.4,11.6,1,12c.6.3,1,2.2,1,4.1,0,2.4.5,3.4,1.5,3.4.9,0,1.5.9,1.5,2.5,0,1.4.5,2.5,1,2.5.6,0,1,.9,1,2s.5,2,1,2c.6,0,1,.7,1,1.5s.5,1.5,1,1.5c.6,0,1,.7,1,1.5s.5,1.5,1,1.5c.6,0,2,1.1,3.2,2.5s2.8,2.5,3.5,2.5a1.442,1.442,0,0,1,1.3,1.5,1.538,1.538,0,0,0,1.5,1.5c.8,0,1.5.4,1.5,1,0,.5.8,1,1.8,1a7.1,7.1,0,0,1,4,2.1c2.5,2.2,14.5,6.9,17.9,6.9,1.2,0,2.3.4,2.5,1,.2.5,1.7,1.2,3.3,1.6l3.1.6.1-11.9c.1-11.7,2.2-23.4,4.3-24.1.6-.2,1-1.5,1-2.8s.3-2.4.8-2.4c.4,0,1.4-1.5,2.1-3.3,1.7-3.6,3.5-5.7,5-5.7a1.11,1.11,0,0,0,1.1-1.1c0-1.6,2.6-3.9,4.4-3.9.9,0,1.6.4,1.6,1,0,.5-.3,1-.7,1-.9,0-3.3,4.9-3.3,6.7,0,.7-.4,1.3-1,1.3-.5,0-1,2.2-1,5,0,5.7,1.2,6.4,3.2,2,.7-1.7,1.7-3,2.1-3,1,0,3.7-2.6,3.7-3.5,0-.8,2.7-3.5,3.5-3.5,1,0,3.5-2.8,3.5-3.9a1.23,1.23,0,0,1,1.3-1.1,5.775,5.775,0,0,0,3.2-2,5.93,5.93,0,0,1,3.1-2,1.7,1.7,0,0,0,1.6-.8c.4-.8,6.5-5.2,7.3-5.2s5.4-5.3,5.5-6.3a4.892,4.892,0,0,1,1.5-2.3,7.8,7.8,0,0,0,1.5-4.5c0-2.5-.4-2.9-2.9-2.9-1.7,0-3.3.4-3.6,1a3.5,3.5,0,0,1-2.6,1c-1,0-1.9-.5-1.9-1,0-.6-1.8-1-4-1-2.9,0-4-.4-4-1.5,0-.9-.9-1.5-2.5-1.5-1.4,0-2.5-.5-2.5-1,0-.6-.9-1-2-1s-2-.5-2-1c0-.6-.9-1-1.9-1a3.033,3.033,0,0,1-2.5-1.5A2.941,2.941,0,0,0,451-681c-1.1,0-2-.4-2-.9s-1.6-1.5-3.5-2.2-3.5-1.9-3.5-2.7c0-.7-.4-1-1-.7-.5.3-1,.2-1-.2,0-.5-1.7-1.5-3.7-2.2a17.25,17.25,0,0,1-5.6-3.3,12.2,12.2,0,0,0-4.8-2.5c-1.6-.3-2.9-.9-2.9-1.4s-1.1-.9-2.5-.9-2.8-.7-3.1-1.5c-.4-.9-1.9-1.5-3.9-1.5-1.9,0-3.7-.5-4-1-.3-.6-3.3-1-6.5-1S396.8-702.6,396.5-702Z" transform="translate(8.668 1282.244)"/>
      <path id="Path_8" data-name="Path 8" d="M635-702c0,.5-1.6,1-3.5,1-2.2,0-3.8.6-4.1,1.5a3.033,3.033,0,0,1-2.5,1.5,9.582,9.582,0,0,0-3.7.9c-.9.5-3.5,1.8-5.7,2.9-2.2,1.2-6.4,3.3-9.2,4.7a27.561,27.561,0,0,0-5.9,3.6c-.3.5-2.8,2.1-5.5,3.4-2.7,1.4-4.9,2.9-4.9,3.3s-1.5,1.3-3.2,2a51.2,51.2,0,0,0-5,2.3,10.071,10.071,0,0,1-3.8.9c-1.3,0-1.8.5-1.4,1.5.5,1.2-.3,1.5-3.6,1.5a18.326,18.326,0,0,0-6.1,1c-1.3.7-1.9.7-1.9,0,0-.5-1.3-1-3-1-2.9,0-3,.2-3,4.2.1,4.3,1.8,7.8,3.9,7.8a1.11,1.11,0,0,1,1.1,1.1c0,1.6,3.9,4.8,6.6,5.5a4.382,4.382,0,0,1,2.8,2,2.135,2.135,0,0,0,1.8,1.4c.7,0,3.2,1.7,5.5,3.8,6.5,5.8,8.3,7.2,9.1,7.2.4,0,1.2,1,1.8,2.3,4.5,9,5.6,10.2,6.7,7.4.8-2.2-.5-11.7-1.7-11.7-.6,0-1.8-1.8-2.7-3.9-1.6-3.7-1.6-3.9,0-3.4a13.433,13.433,0,0,1,7.1,5.8c.7,1.4,1.9,2.5,2.7,2.5.7,0,1.3.9,1.3,2s.3,2,.8,2c1,0,3.2,5,3.2,7.1a3.172,3.172,0,0,0,1,2.4c.6.3,1,2.4,1,4.6s.4,3.8.9,3.5c1.3-.8,2.3,7.6,2,16.8l-.3,8.1,2.9-.3a11.544,11.544,0,0,0,4-1.1,61.635,61.635,0,0,1,8.9-3.1c4.3-1.3,8-3,8.3-3.7a2.781,2.781,0,0,1,2.4-1.3c1,0,1.9-.5,1.9-1,0-.6.7-1,1.5-1s1.5-.5,1.5-1c0-.6.9-1,2-1s2-.5,2-1.1c0-1.1,2.5-3.9,3.5-3.9s5.5-4.8,5.5-6a1.233,1.233,0,0,1,1.3-1c.6,0,1.8-1.5,2.5-3.3.7-1.7,1.8-4,2.3-4.9a10.071,10.071,0,0,0,.9-3.8c0-1.1.5-2,1-2,.6,0,1-2,1-4.4,0-3,.5-4.6,1.5-5,1.1-.4,1.5-2.3,1.5-7.8,0-4-.4-7.9-.8-8.6-1.2-1.8-4.2-.4-4.2,1.9,0,2.5-1.9,5.8-5.2,9.2-1.6,1.5-2.8,3.2-2.8,3.7,0,.6-.7,1-1.5,1s-1.5.4-1.5,1c0,.5-.9,1-1.9,1-1.5,0-1.8-.5-1.4-2.3a7.417,7.417,0,0,1,1.7-3.2,8.3,8.3,0,0,0,2-3c1.5-3.9,3.6-18.6,3.2-21.8a66.3,66.3,0,0,0-2.8-12.9c-.5-1.5-.7-3.2-.3-3.7.8-1.3,8.5,6.4,8.5,8.5,0,.8.5,1.2,1,.9.6-.3,1-1.9,1-3.6,0-1.6-.4-2.9-1-2.9-.5,0-1-1-1-2.3,0-3.6-2-7.1-5.7-9.8-1.8-1.3-3.3-3-3.3-3.7s-1.3-1.2-3-1.2c-1.6,0-3-.5-3-1,0-.6-2.8-1-6.5-1S635-702.6,635-702Z" transform="translate(12.922 1282.243)"/>
      <path id="Path_9" data-name="Path 9" d="M314-682c0,.5-1.8,2.8-4,5s-4,4.3-4,4.6a23.71,23.71,0,0,1-3.5,4.2c-1.9,2-3.5,4.2-3.5,4.9,0,.6-1.1,2-2.5,3.1s-2.5,2.6-2.5,3.3a8.938,8.938,0,0,1-2,3.9,8.955,8.955,0,0,0-2,4.1,2.841,2.841,0,0,1-1.5,2.3A2.941,2.941,0,0,0,287-644c0,1.1-.4,2-1,2-.5,0-1,1.1-1,2.4,0,1.4-.4,2.8-1,3.1-.5.3-1,1.9-1,3.5s-.6,3.3-1.4,3.7c-3.9,2.3-3.9,47.3,0,47.3.9,0,1.4,1.2,1.4,3.4,0,1.9.5,3.8,1,4.1.6.3,1,1.9,1,3.6,0,1.6.5,2.9,1,2.9.6,0,1,.9,1,1.9a3.033,3.033,0,0,0,1.5,2.5c.8.3,1.5,1.7,1.5,3.1s.3,2.5.8,2.5c.4,0,1.3,1.5,2.1,3.2a12.3,12.3,0,0,0,2.6,4.3,23.01,23.01,0,0,1,3.4,5.3c1.2,2.3,2.5,4.2,3,4.2s1.4,1.4,2.1,3a13.883,13.883,0,0,0,3.6,4.9,9.454,9.454,0,0,1,2.4,2.5,8.544,8.544,0,0,0,2,2.8,7.548,7.548,0,0,1,2,3.5,1.233,1.233,0,0,0,1,1.3c1.4,0,6,4.6,6,6a1.075,1.075,0,0,0,1,1c1.2,0,6,4.5,6,5.5,0,.9,2.7,3.5,3.7,3.5.5,0,1.5.9,2.3,2.1a42.037,42.037,0,0,0,6.5,5.7,45.764,45.764,0,0,1,7.3,6.4c1.3,1.6,2.9,2.8,3.5,2.8.7,0,2.3,1.2,3.6,2.5,1.3,1.4,2.8,2.5,3.3,2.5.6,0,2.1,1.1,3.4,2.5s2.8,2.5,3.4,2.5a.988.988,0,0,1,1,.8c0,.5,1.6,1.4,3.5,2.2s3.5,1.9,3.5,2.6c0,.6,1.5,1.8,3.2,2.5a23.869,23.869,0,0,1,6.3,4.2,25.731,25.731,0,0,0,6,4.3c2.9,1.3,4.3,2.2,9.7,5.6a9.589,9.589,0,0,0,4.2,1.8,1.481,1.481,0,0,1,1.6,1.2c0,1.3,8.5,5.8,10.8,5.8a1.216,1.216,0,0,1,1.2,1.2c0,1.3,4.4,3.8,6.7,3.8.7,0,1.3.4,1.3,1,0,.5.8,1,1.9,1,2.1,0,7.3,2.5,6.6,3.1-.2.3,2.6,1.8,6.3,3.4a67.617,67.617,0,0,1,7.2,3.4c.5.6,9.1,4.1,13.3,5.5.9.3,1.7,1,1.7,1.6,0,.5,1.1,1,2.5,1s2.5.4,2.5,1c0,.5,1.4,1,3,1,1.7,0,3,.4,3,1,0,.5,1.1,1,2.5,1,1.7,0,2.5.6,2.5,1.7,0,1.5.2,1.6,1,.3.8-1.2,1-1.1,1,.7,0,1.3-.6,2.3-1.4,2.3s-2.4,1.1-3.7,2.5c-1.3,1.3-2.9,2.5-3.6,2.5a1.645,1.645,0,0,0-1.5.8c-.1.4-3,3-6.3,5.7a98.847,98.847,0,0,0-8.1,7.5c-1.2,1.4-3.1,3.5-4.1,4.7a59.867,59.867,0,0,0-3.8,4.7c-1.1,1.4-2.5,2.6-3.2,2.6s-1.3,1.1-1.3,2.5-.4,2.5-1,2.5a1,1,0,0,0-1,1c0,.5.9,1,2,1s2,.5,2,1.1c0,.5,2,1.9,4.5,3,2.4,1.1,4.8,2.5,5.2,3.2s2.7,2.5,5.1,4.1c2.3,1.6,4.2,3.3,4.2,3.7a.923.923,0,0,0,1,.9c1.1,0,6,4.8,6,5.9,0,.4,1.1,1.4,2.5,2.1a6.873,6.873,0,0,1,3.1,3.7c.4,1.3,1,2.3,1.6,2.3,1.2,0,5.8,4.7,5.8,6a1,1,0,0,0,1,1c.5,0,2.2,2.1,3.7,4.7,1.5,2.7,3.5,5.4,4.5,6.1a4.084,4.084,0,0,1,1.8,2.4c0,2,5,11.8,6,11.8.6,0,1,.9,1,1.9a3.5,3.5,0,0,0,1,2.6c.6.3,1,1.5,1,2.6,0,1,.5,1.9,1,1.9.6,0,1,1.1,1,2.5,0,1.6.6,2.5,1.5,2.5s1.5.9,1.5,2.5c0,1.4.5,2.5,1,2.5.6,0,1,1.1,1,2.4,0,1.4.5,2.8,1,3.1.6.3,1,1.9,1,3.6,0,1.9.5,2.9,1.5,2.9a1.79,1.79,0,0,1,1.5,1.9,3.5,3.5,0,0,0,1,2.6c.6.3,1,1.7,1,3.1,0,1.6.4,2.3,1.1,1.8,1.6-.9.5-15.8-2.7-39.2-.4-2.4-1.2-4.6-2-4.9-.9-.3-1.4-2.1-1.4-4.9,0-2.4-.4-4.4-1-4.4-.5,0-1-1.3-1-2.9,0-1.7-.4-3.3-1-3.6a3.5,3.5,0,0,1-1-2.6,1.79,1.79,0,0,0-1.5-1.9c-.9,0-1.5-.9-1.5-2.4,0-1.4-.4-2.8-1-3.1a3.172,3.172,0,0,1-1-2.4,7.02,7.02,0,0,0-1.8-3.7,23.257,23.257,0,0,1-3.3-4.9c-2.6-4.9-6.1-11-6.8-11.5a17.845,17.845,0,0,1-1.9-3.1,29.952,29.952,0,0,0-3.8-5.2c-1.3-1.4-2.4-3.3-2.4-4.2,0-1.7,2.3-4.5,3.7-4.5.5,0,1.5-.9,2.3-2a4.6,4.6,0,0,1,2.7-2,1.233,1.233,0,0,0,1.3-1c0-.6.7-1,1.5-1s1.5-.4,1.5-1c0-.9,10.1-6,11.9-6,.5,0,1.1-.6,1.4-1.4.3-.7,3.7-2.3,7.6-3.5s7.1-2.5,7.1-2.9,2.1-1.3,4.8-2a50.888,50.888,0,0,0,6.4-2.3,11.34,11.34,0,0,1,4.3-.9c1.6,0,2.5-.6,2.5-1.5,0-1,1-1.5,2.9-1.5,1.7,0,3.3-.5,3.6-1,.3-.6,1.9-1,3.6-1,1.6,0,2.9-.5,2.9-1,0-.6,1.4-1,3-1q3,0,3-1.5c0-1,1-1.5,2.9-1.5,1.7,0,3.3-.4,3.6-1s2.2-1,4.1-1,3.4-.5,3.4-1c0-.6,1.1-1,2.5-1s2.5-.4,2.5-1c0-.5,1.2-1.2,2.8-1.6,4.1-.9,15.6-4.8,16.2-5.4a56.433,56.433,0,0,1,7.8-3.4c3.9-1.6,7.2-3.2,7.2-3.5,0-.9,5.1-3.1,7.1-3.1a3.172,3.172,0,0,0,2.4-1c.3-.6,1.5-1,2.6-1,1,0,1.9-.5,1.9-1,0-.6.9-1,2-1s2-.7,2-1.5a1.538,1.538,0,0,1,1.5-1.5,9.11,9.11,0,0,0,3.3-.9,51.194,51.194,0,0,1,5-2.3c1.7-.7,3.2-1.9,3.2-2.5,0-.7,1.1-1.3,2.5-1.3s2.5-.4,2.5-.8,1.6-1.4,3.5-2.1,3.5-1.6,3.5-2.1,2.3-1.9,5-3.1c2.8-1.2,5.4-2.7,5.8-3.3,1-1.6,8-5.6,9.8-5.6a1.347,1.347,0,0,0,1.4-1.3c0-.6,1-1.7,2.3-2.3,8.1-4.1,8.9-4.7,7.6-5.5-1-.6-.8-.9.7-.9a4.584,4.584,0,0,0,3.3-1.4,7.877,7.877,0,0,1,3.6-2c1.4-.4,2.5-1.2,2.5-1.9.1-.6,1.9-2.6,4.1-4.2,10.4-7.7,13.7-10.3,17.4-13.9,2.2-2.1,5.2-5,6.7-6.5,1.6-1.4,2.8-3.1,2.8-3.6,0-.6,1.6-2.1,3.5-3.5s3.5-2.8,3.5-3.2a11.354,11.354,0,0,1,2.5-3.5c4.7-5.3,8.5-10.1,8.5-10.8,0-1.3,3.7-5.4,4.4-4.8.3.3.6-.3.6-1.5s.3-2.2.8-2.2c.8,0,3.2-4.9,3.2-6.7a1.442,1.442,0,0,1,1.5-1.3c.8,0,1.5-.9,1.5-2s.5-2,1-2c.6,0,1-1.1,1-2.4,0-1.4.4-2.8,1-3.1s1-1.7,1-3,.6-2.8,1.4-3.2c1.5-.9,2.3-4.4,3.6-16.3a73.6,73.6,0,0,1,1.5-9.7c.7-1.9-1.5-21.4-2.6-23.5a14.9,14.9,0,0,1-.9-5.3c0-2.4-.5-3.5-1.5-3.5s-1.5-1-1.5-3c0-1.7-.4-3-1-3-.5,0-1-1.4-1-3,0-1.7-.4-3-1-3-.5,0-1-1.2-1-2.6s-.4-2.3-.9-2c-1,.7-4.1-3.7-4.1-5.8,0-.7-1.1-2.4-2.5-3.7-1.3-1.3-2.5-2.9-2.5-3.5a5.984,5.984,0,0,0-2-2.9,6.709,6.709,0,0,1-2-2.6c0-1.4-6.4-7.9-7.7-7.9a1.324,1.324,0,0,1-1.3-1.3,5.774,5.774,0,0,0-2-3.2,5.775,5.775,0,0,1-2-3.2c0-.8-.5-1.1-1-.8-.6.3-1.3-.1-1.6-.9-1-2.6-2.4-1.8-2.4,1.4,0,1.6.5,3,1,3,.6,0,1,1.8,1,4,0,2.9.4,4,1.5,4a1.79,1.79,0,0,1,1.5,1.9c0,2.7,4.1,10.3,6.8,12.4,3.6,3,2.8,4.7-2.3,4.7-4.9,0-5.3.7-3.4,5.7.7,1.9.7,2.9,0,3.1-.6.2-1.1,1.6-1.1,3.2a3.931,3.931,0,0,1-1.5,3.4c-.8.3-1.5,1.7-1.5,3.1s-.4,2.5-1,2.5c-.5,0-1,.7-1,1.5s-.4,1.5-1,1.5c-.5,0-1,.7-1,1.5s-.4,1.5-.8,1.5c-.5,0-2.6,2.5-4.8,5.5-2.1,3-4.4,5.5-5,5.5s-2,1.8-3.3,4c-1.2,2.2-2.6,4-3.2,4a1.018,1.018,0,0,0-.9,1.1,9.486,9.486,0,0,1-2,3.6l-2,2.6v-3.1a14.765,14.765,0,0,1,1.2-5.6,5.091,5.091,0,0,0,0-4.8c-1-2.2-1.1-2.1-1.1.9-.1,2-.6,3.3-1.4,3.3-.7,0-1.9,2-2.6,4.5s-1.7,4.5-2.2,4.5-.9.9-.9,1.9a3.667,3.667,0,0,1-.9,2.6c-.5.3-2.2,3.1-3.8,6.2a48.141,48.141,0,0,1-4.9,8,19.632,19.632,0,0,0-3.4,6.8c-.7,2.5-1.5,4.5-1.9,4.5-1.9,0-5.1,13.2-5.1,21,0,4.2-.4,6-1.3,6-1.6,0-3.1-3.9-4.6-11.6-1.4-7.7-1.4-11.6.1-14.9.9-1.9.9-2.8,0-3.7s-1.2-.6-1.2,1.5c0,1.7-.5,2.7-1.5,2.7-.8,0-1.5.9-1.5,2s-.4,2-1,2c-.5,0-1,.8-1,1.8a5.781,5.781,0,0,1-.8,2.8A18.8,18.8,0,0,0,662-551c-.8,2.5-1.9,4.8-2.5,5.2a2.649,2.649,0,0,0-1,1.5c-.2,3.1-2.2,7.5-6.1,12.9-2.4,3.5-4.4,6.8-4.4,7.3s-1.6,1.8-3.5,3c-1.9,1.1-3.5,2.5-3.5,3s-1.8,1.8-4,3c-2.2,1.1-4,1.8-4,1.4s-.5-.2-1.2.5-2.7,1.2-4.5,1.2c-2.3,0-3.3.5-3.3,1.5,0,1.1-1.1,1.5-4,1.5-3.9,0-3.9-.1-2.8-2.5.6-1.4,1.5-2.5,2-2.5,1.4,0,4.8-3.9,4.8-5.5a1.538,1.538,0,0,1,1.5-1.5c.8,0,1.5-.9,1.5-2s.5-2,1-2c.6,0,1-.9,1-1.9a3.5,3.5,0,0,1,1-2.6c.6-.3,1-1.9,1-3.6,0-1.9.5-2.9,1.5-2.9,1.2,0,1.5-1.3,1.5-6,0-3.3.4-6,1-6s1-1.4,1-3c0-1.7-.4-3-1-3-.5,0-1,1.3-1,3q0,3-1.5,3c-.9,0-1.5.9-1.5,2.2a9.36,9.36,0,0,1-2,4.8,9.681,9.681,0,0,0-2,3.7c0,.7-.4,1.3-.9,1.3s-1.8,1.5-3,3.3c-2.7,4.4-9.5,11.7-10.9,11.7-.7,0-1.2.4-1.2.9s-.9,1.2-1.9,1.6a4.2,4.2,0,0,0-2.6,2.6c-.4,1.2-1.5,1.9-3.2,1.9a6.549,6.549,0,0,0-4.2,1.9c-2.5,2.9-9.3,5.5-10.3,3.9-1.2-2-1-3.8.5-3.8.8,0,1.9-1.2,2.6-2.8.8-1.5,1.7-3.5,2.2-4.4a8.656,8.656,0,0,0,.9-3.2,2.528,2.528,0,0,1,1.5-2c.9-.3,1.5-1.8,1.5-4,0-1.9.5-3.8,1-4.1.6-.3,1-2.8,1-5.6,0-2.7.5-4.9,1-4.9.6,0,1-3.8,1-9.5s-.4-9.5-1-9.5a1.2,1.2,0,0,0-1,1.2c0,1.3-10.2,7.8-12.1,7.8-.5,0-.9.7-.9,1.5,0,.9-.9,1.5-2.5,1.5-1.4,0-2.5.4-2.5,1,0,.5-.9,1-2,1s-2,.4-2,1c0,.5-1.1,1-2.5,1-1.6,0-2.5.6-2.5,1.5,0,1-1.1,1.5-3.5,1.5-1.9,0-3.5.4-3.5,1,0,.5-1.3,1-2.9,1-1.7,0-3.3.4-3.6,1-.3.5-2.6,1-5,1-3,0-4.5.5-4.9,1.6-.9,2.3-15.5,1.7-17.9-.8-2.5-2.5-2.2-2.8,2.7-2.8,2.5,0,4.8-.5,5.1-1,.3-.6,2.8-1,5.6-1,3.7,0,4.9-.4,4.9-1.5,0-.9.9-1.5,2.4-1.5,1.4,0,2.8-.5,3.1-1a2.783,2.783,0,0,1,2.3-1c.9,0,3.5-2.1,5.7-4.6s4.8-5.3,5.8-6.2a5.808,5.808,0,0,0,1.7-3.4c0-1,.5-1.8,1-1.8.6,0,1-1.1,1-2.5s.5-2.5,1-2.5c.6,0,1-.9,1-2s.6-1.9,1.3-1.8c.6.2,1.1-.3.9-1a1.1,1.1,0,0,1,1.2-1.2c1.7,0,2.8,7.4,1.9,13.5-.4,3.1-.2,4.5.6,4.5.6,0,1.1-.7,1.1-1.6,0-.8.4-1.3.9-1,1,.6,4.8-7.6,5.7-12.4.4-1.6,1-3,1.5-3s.9-3.2.9-7c0-3.9-.4-7-1-7-.5,0-1.2-1.5-1.5-3.3a18.485,18.485,0,0,0-3.6-6.5c-2.7-3-3.2-3.2-10-3.2-4.9,0-7.5.4-8.5,1.5a6.381,6.381,0,0,1-3.7,1.5c-2.9,0-15.8,4-17.7,5.5-5.7,4.5-42.9,4.1-47-.5-.8-.9-13.6-5-15.7-5a7.915,7.915,0,0,1-3.9-1.5c-2.6-2-15-2-17,0a41.5,41.5,0,0,1-3.2,2.7c-3,2.3-4.2,6.7-4.2,15.7,0,7.9,1.2,14.7,2.9,16.1,1.1.9,4.2,6,3.6,6-.2,0,.3.9,1.2,2,2.3,2.7,3.3,2.5,3.3-.5,0-1.4-.4-2.5-1-2.5-.5,0-1-2.3-1-5,0-2.8.4-5,.9-5s1.2-1,1.5-2.3c.6-2,.8-1.9,2.4,1.5.9,2.1,2.2,3.8,2.9,3.8s1.3.9,1.3,1.9a3.5,3.5,0,0,0,1,2.6c.6.3,1,1.5,1,2.6,0,1,.5,1.9,1,1.9.6,0,1,.7,1,1.5a1.453,1.453,0,0,0,1.4,1.5c.8,0,2,1.4,2.8,3a7.666,7.666,0,0,0,4.6,4.2c1.7.7,3.2,1.6,3.2,2s1.4.8,3,.8c1.9,0,3,.5,3,1.4,0,1,1.7,1.6,5.3,2,2.8.3,7.6.8,10.5,1.2l5.3.6-2.5,2.5c-2.4,2.3-3.1,2.5-10.3,2.1-4.8-.2-7.8-.8-8.1-1.6-.2-.7-2.1-1.2-4.2-1.2s-4.2-.5-4.5-1c-.3-.6-1.9-1-3.5-1s-3.2-.5-3.5-1c-.3-.6-1.9-1-3.6-1-1.9,0-2.9-.5-2.9-1.5,0-.9-.9-1.5-2.4-1.5-1.4,0-2.8-.5-3.1-1-.3-.6-1.7-1-3.1-1-1.3,0-2.4-.5-2.4-1,0-.6-.7-1-1.5-1s-1.5-.3-1.5-.8c0-.4-2.4-2-5.3-3.6a37.8,37.8,0,0,1-7-5c-2.2-2.5-5.7-3.2-5.7-1.1,0,.8.4,1.5,1,1.5.5,0,1.1,4.2,1.2,9.2.2,6.8.6,9.2,1.6,9,.8-.1,1.2,1.3,1.2,4.7,0,2.8.5,5.3,1,5.6.6.3,1,2.2,1,4.1s.5,3.4,1,3.4c.6,0,1,.9,1,2s.6,2,1.4,2c.7,0,1.6,1.2,1.9,2.7a46.146,46.146,0,0,0,1.2,5c.7,2,.4,2.3-2.3,2.3-1.7,0-3.5-.6-3.9-1.3-.4-.6-3-2.3-5.7-3.6-2.6-1.4-5-3.1-5.3-3.8s-.9-1.3-1.4-1.3c-1.1,0-6.4-4.5-9.4-7.8-1.1-1.3-2.9-3.4-4.1-4.7a39.667,39.667,0,0,1-4-6.4c-1.1-2.4-2.4-3.9-3.1-3.6-.9.3-1.3-.6-1.3-2.5,0-1.7-.4-3-1-3-.5,0-1-1.4-1-3,0-1.7-.4-3-1-3-.5,0-1,1.8-1,3.9,0,2.2.5,4.3,1,4.6.6.3,1,2.4,1,4.5s.5,4.2,1,4.5c.6.3,1,2.2,1,4.1,0,2.4.5,3.4,1.5,3.4a1.687,1.687,0,0,1,1.5,1.8,7.531,7.531,0,0,0,2,4,7.409,7.409,0,0,1,2,4.2c0,1.1.5,2,1,2,1.5,0,7.1,5.6,6.3,6.3-1.2,1.3-5.4.7-5.9-.8-.4-1-2-1.5-4.5-1.5-2.1,0-3.9-.5-3.9-1,0-.6-.9-1-2-1-2.9,0-7-2.1-7-3.7a1.347,1.347,0,0,0-1.4-1.3c-2.1,0-10.1-9.9-12.6-15.8-1.2-2.8-2.6-5.2-3.1-5.2s-.9-.7-.9-1.5-.4-1.5-1-1.5c-.5,0-1-1.3-1-2.9,0-1.7-.4-3.3-1-3.6-.5-.3-1-1.7-1-3.1,0-1.3-.4-2.4-.9-2.4s-1.1-1-1.3-2.3c-.2-1.2-.9-2.1-1.6-2-.7.2-1.2-.8-1.2-2.2s-.4-2.5-1-2.5c-.5,0-1-.9-1-2s-.5-2-1.1-2c-1,0-.9,2.2.2,6.6.5,1.8-1.3,15.4-2.1,15.4-.4,0-1,1.3-1.3,3-1.1,5.1-2.2,3.4-3.9-6.3-1.6-9.3-6.6-24.3-8.5-25.5a15.018,15.018,0,0,1-2.4-4c-.8-1.7-1.7-3.2-2-3.2-.4,0-.9-.9-1.2-2.1s-1-1.8-1.6-1.4c-.7.4-1.1-.3-1.1-1.7a9.36,9.36,0,0,0-2-4.8,9.052,9.052,0,0,1-2-4.3,1.655,1.655,0,0,0-1.5-1.7c-1,0-1.5-1-1.5-2.9,0-1.7-.4-3.3-1-3.6-.5-.3-1-1.8-1-3.3,0-2-.3-2.3-1.2-1.4s-.9,2.3.1,6.3c.7,2.7,1.1,5.3.8,5.5-.9.9-4.7-1.6-4.7-3.1,0-2-4.3-8.4-5.7-8.5-.7,0-1.3-.3-1.3-.8a11.353,11.353,0,0,0-2.5-3.5c-1.4-1.5-2.2-2.7-1.8-2.7s-.7-1.3-2.4-2.9c-1.8-1.6-3.3-3.4-3.3-4,0-1.6-3.2-5.1-4.2-4.5-.4.3-.8-.5-.8-1.8a7.386,7.386,0,0,0-.8-3.4c-1.7-1.9-3.3-9.5-2.6-12.9.6-3.5.6-3.5-2.9-3.5-6.1,0-6.8-.7-3.6-4.2,1.6-1.6,2.9-3.7,2.9-4.4a2.285,2.285,0,0,1,1.4-2c.7-.3,1.9-2.4,2.6-4.7a26.228,26.228,0,0,1,2.2-5.2,9.282,9.282,0,0,0,.8-4.2c0-2.3.5-3.3,1.5-3.3s1.5-1,1.5-3-.5-3-1.5-3C314.7-683,314-682.6,314-682Z" transform="translate(10.863 1283.114)"/>
      <path id="Path_10" data-name="Path 10" d="M790-617.1c1.3,2.6,1.4,38.8,0,39.6-.5.3-1,2.6-1,5.1,0,3-.4,4.3-1.2,4.1-.8-.1-1.4,1.2-1.6,3.5-.2,2.1-.7,3.8-1.3,3.8-.5,0-.8.3-.7.7.4,1.3-2.4,10.3-3.2,10.3-.4,0-2,3-3.5,6.7-1.5,3.8-3.5,7.5-4.4,8.3a15.874,15.874,0,0,0-2.9,4,37.755,37.755,0,0,1-5.9,9,17.639,17.639,0,0,0-3.5,5.2c-.7,1.5-1.7,2.8-2.1,2.8-1,0-3.7,2.6-3.7,3.5,0,.3-3.1,3.7-7,7.4-3.8,3.8-7,7.3-7,8a1.028,1.028,0,0,1-1,1.1c-.5,0-2.6,1.6-4.6,3.5a26.542,26.542,0,0,1-4,3.5c-.9,0-5.4,4.9-5.4,6,0,.5-.8,1-1.8,1a4.736,4.736,0,0,0-3.2,2,4.6,4.6,0,0,1-2.7,2,1.324,1.324,0,0,0-1.3,1.3c0,.6-1.2,1.8-2.7,2.4a32.887,32.887,0,0,0-6.7,4.8c-2.2,1.9-4.5,3.5-5.1,3.5s-2.2,1.1-3.5,2.5-2.9,2.5-3.5,2.5c-1.1,0-2.4,1-7.2,5a5.049,5.049,0,0,1-2.3,1,1,1,0,0,0-1,1c0,.5-.9,1-2,1s-2,.4-2,1c0,.5-.7,1-1.5,1a2.408,2.408,0,0,0-2.1,1.5,3.033,3.033,0,0,1-2.5,1.5c-1,0-1.9.4-1.9,1,0,.5-.7,1-1.5,1s-1.5.4-1.5,1c0,.5-1.1,1-2.5,1s-2.5.4-2.5,1c0,.5-.6,1-1.4,1a2.317,2.317,0,0,0-1.9,1.2c-.2.7-3.2,2.4-6.6,3.7-3.3,1.3-6.1,2.7-6.1,3.1,0,.6-4.5,2.8-10.2,4.9-1.6.6-2.8,1.5-2.8,2.1,0,.5-.8,1-1.8,1a20.468,20.468,0,0,0-6,2,19.362,19.362,0,0,1-5.7,2,1.538,1.538,0,0,0-1.5,1.5c0,.9-.9,1.5-2.5,1.5-1.4,0-2.5.4-2.5,1,0,.5-1.3,1-3,1-1.6,0-3,.4-3,1,0,.5-1.1,1-2.5,1-1.6,0-2.5.6-2.5,1.5a1.655,1.655,0,0,1-1.7,1.5c-1.9,0-7.9,1.8-10.5,3.1a10.132,10.132,0,0,1-3.9.9c-1.2,0-1.9.5-1.6,1.2.5,1.5,11.7,1.3,12.7-.1.3-.5,3.2-1.1,6.5-1.5,13.3-1.4,16-1.8,17-2.7.5-.5,2.8-.9,5.2-.9,3,0,4.5-.5,4.9-1.5s2-1.5,4.5-1.5c2.1,0,3.9-.5,3.9-1,0-.6,1.5-1,3.4-1s3.8-.5,4.1-1c.3-.6,2-1,3.6-1,1.7,0,3.2-.6,3.5-1.5.4-.9,1.9-1.5,4-1.5,1.9,0,3.4-.5,3.4-1,0-.6,1.4-1,3-1,1.7,0,3-.5,3-1,0-.6.9-1,2-1s2-.4,2-.8c0-.5,2.1-1.5,4.8-2.4,6.9-2.4,11.6-4.2,12.2-4.9.8-.8,9.8-4.9,10.9-4.9a2.514,2.514,0,0,0,1.8-1.3c.4-.7,2.4-1.9,4.3-2.7a25.687,25.687,0,0,0,4-1.9c1.1-1.2,5-3.1,6.5-3.1a1.538,1.538,0,0,0,1.5-1.5,1.538,1.538,0,0,1,1.5-1.5c.8,0,1.5-.5,1.5-1,0-.6.8-1,1.8-1,2.1-.1,5.2-2.3,5.2-3.9,0-.6.8-1.1,1.8-1.1a5.966,5.966,0,0,0,3.7-2,6.149,6.149,0,0,1,3-2,2.539,2.539,0,0,0,1.9-1.5c.3-.8,2.1-2.3,4.1-3.2,1.9-.9,3.5-2.3,3.5-3a1.233,1.233,0,0,1,1-1.3c.6,0,3.5-2.5,6.5-5.5,2.9-3,5.6-5.5,6-5.5.3,0,2-1.6,3.8-3.7,1.8-2,4.7-5.1,6.5-7,1.7-1.8,3.2-3.7,3.2-4.1s1.5-2.3,3.3-4.3c3.5-4,6.5-8.5,7.4-11.2a2.471,2.471,0,0,1,1.9-1.7c.8,0,1.4-.9,1.4-2s.5-2,1-2c.6,0,1-1.1,1-2.5s.5-2.5,1-2.5c.6,0,1-1.1,1-2.5,0-1.6.6-2.5,1.5-2.5s1.5-.9,1.5-2.3a5.641,5.641,0,0,1,.7-3.1c1.3-1.2,3.3-8.1,3.3-11.3,0-1.7.5-3.3,1.2-3.5,2.2-.8,3.5-21.1,2.3-33.9-.7-7-1.6-11.4-2.3-11.7-.7-.2-1.2-1.9-1.2-3.7,0-1.9-.4-3.7-1-4-.5-.3-1-1.7-1-3s-.4-2.7-1-3c-.5-.3-1-1.7-1-3.1,0-1.5-.6-2.4-1.5-2.4a1.442,1.442,0,0,1-1.5-1.3c0-1.9-2.4-6.7-3.3-6.7C789.3-619,789.4-618.1,790-617.1Z" transform="translate(15.303 1282.822)"/>
      <path id="Path_11" data-name="Path 11" d="M254.7-616.3a3.923,3.923,0,0,0-.7,2.5,1.687,1.687,0,0,1-1.5,1.8c-.9,0-1.5.9-1.5,2.4,0,1.4-.4,2.8-1,3.1-.5.3-1,2.1-1,4s-.4,3.7-1,4c-.5.3-1,3.3-1,6.5,0,3.6-.5,6-1.2,6.2-1.5.5-1.5,19.7,0,20.7.5.3,1.2,3.1,1.6,6.1.9,9.8,1.8,14.5,2.7,15.4a7.445,7.445,0,0,1,.9,3.9c0,1.6.4,2.6,1,2.2.5-.3,1.2.6,1.6,2,.3,1.4,1,2.5,1.5,2.5s.9,1.3.9,3c0,1.6.5,3,1,3,.6,0,1,1.1,1,2.5s.6,2.5,1.3,2.5,2,1.7,2.9,3.9a22.312,22.312,0,0,0,3,5.2,30.529,30.529,0,0,1,2.7,4,54.851,54.851,0,0,0,5.7,8c2.4,3,4.4,5.8,4.4,6.2,0,1.1,2.6,3.7,3.7,3.7.4,0,1.9,1.8,3.3,4,1.3,2.2,3,4,3.7,4a1.233,1.233,0,0,1,1.3,1c0,1.2,4.5,6,5.6,6a8.656,8.656,0,0,1,2.6,2.5c1.1,1.4,2.5,2.5,3.1,2.5.7,0,2.3,1.4,3.6,3,1.3,1.7,2.9,3,3.6,3,.8,0,2.3,1.3,3.5,3,1.2,1.6,2.7,3,3.3,3,1.6.1,5.7,3.6,5.7,4.9,0,.6.8,1.1,1.8,1.1a7.531,7.531,0,0,1,4,2c1.2,1.1,2.6,2,3.2,2s1.3.7,1.6,1.5a2.528,2.528,0,0,0,2,1.5c.8,0,1.4.4,1.4.8,0,.5,1.6,1.4,3.5,2.2s3.5,1.7,3.5,2.2c0,.4.9.8,2,.8s2,.5,2,1.1c0,.5,2,1.9,4.5,3a28.47,28.47,0,0,1,5.7,3.2c.7.7,4.3,2.6,8,4.1,3.7,1.6,6.5,3.3,6.2,3.7-.3.5.4.9,1.5.9s2.3.4,2.6,1c.3.5,1.7,1,3.1,1,1.3,0,2.4.4,2.4,1,0,.5.9,1,2,1a2.941,2.941,0,0,1,2.6,1.5,3.534,3.534,0,0,0,3,1.5c1.3,0,2.4.4,2.4,1,0,.5,1.4,1,3,1,1.7,0,3,.4,3,1,0,.5,1.3,1,2.9,1s3.1.6,3.5,1.5c.9,2.4,5.8,1.8,8.5-1,1.3-1.4,2.9-2.5,3.7-2.5s1.4-.5,1.4-1c0-.6.6-1,1.4-1a2.528,2.528,0,0,0,2-1.5,2.776,2.776,0,0,1,2.5-1.5c1.4,0,1.8-.5,1.4-2-.4-1.4-1.4-2-3.6-2-1.7,0-2.7-.3-2.3-.7.7-.7-9.9-6.2-12.1-6.3a1.873,1.873,0,0,1-1.5-.8c-.1-.5-3-2.1-6.2-3.6a49.084,49.084,0,0,1-7.9-4.7,7.8,7.8,0,0,0-3.9-1.9c-1,0-1.8-.3-1.8-.8,0-.8-4.9-3.2-6.7-3.2a1.442,1.442,0,0,1-1.3-1.5,1.538,1.538,0,0,0-1.5-1.5c-.8,0-1.5-.5-1.5-1,0-.6-.6-1-1.4-1-1.8,0-6.7-2.6-6.1-3.2.3-.2-1.5-1.5-4-2.7a25.2,25.2,0,0,1-5.7-3.5,50.028,50.028,0,0,0-5.3-3.6,27.239,27.239,0,0,1-4.5-3.1c-.8-1.2-8-5.9-8.9-5.9-.5,0-1.7-1.1-2.7-2.5s-2.4-2.5-3.1-2.5a1.233,1.233,0,0,1-1.3-1c0-.6-.7-1-1.5-1a1.442,1.442,0,0,1-1.5-1.3c0-.8-1.2-2-2.7-2.8-3.1-1.5-5.3-3.4-5.3-4.4,0-.9-2.7-3.5-3.5-3.5-.4,0-3-2.3-5.8-5-2.8-2.8-5.4-5-5.9-5-.4,0-.8-.5-.8-1.1s-1.3-2.2-3-3.6c-1.6-1.3-3-3.1-3-3.9a1.347,1.347,0,0,0-1.3-1.4c-.7,0-2.1-1.2-3.2-2.7-1.1-1.4-3.2-3.9-4.7-5.4-1.6-1.5-2.8-3.4-2.8-4.1a4.763,4.763,0,0,0-2-2.8c-2-1.4-2.9-2.9-7.2-11.3-1-2-2.3-3.7-2.8-3.7a1.028,1.028,0,0,1-1-1.1c0-.6-1.8-4.8-3.9-9.2-4.8-9.9-7.1-16.3-7.1-20,0-1.5-.7-3-1.5-3.3-1-.4-1.5-2-1.5-5.1,0-2.4-.4-5.2-1-6.2-.5-1-1-8.2-1.1-16,0-7.7-.2-14.1-.3-14.1A1.678,1.678,0,0,0,254.7-616.3Z" transform="translate(6.097 1282.808)"/>
      <path id="Path_12" data-name="Path 12" d="M517-387c0,.5-.9,1-2.1,1-2.2,0-3.6,1.2-5.6,4.8-1.5,2.6-1.7,14.2-.3,14.2.6,0,1,.7,1,1.5s1.1,1.7,2.5,2.1c1.4.3,2.5,1,2.5,1.5s2.9.9,6.5.9,6.5-.4,6.5-.9,1.6-1.9,3.5-3.2c2.4-1.7,3.5-3.2,3.5-5a5.923,5.923,0,0,1,1.1-3.6c2.1-2.1-2.8-10.2-7.8-13.1C525.6-388.2,517-388.4,517-387Z" transform="translate(10.793 1283.236)"/>
      <path id="Path_13" data-name="Path 13" d="M534.8-335.6a11.751,11.751,0,0,0-7,11c-.1,5.2,1.8,10.6,3.7,10.6a2.539,2.539,0,0,1,1.9,1.5c.4,1.1,2.2,1.5,7.3,1.5,6.4-.1,7-.3,10.2-3.5,2.9-2.9,3.5-4.3,3.8-8.7.5-6.2-2-11.2-6.3-12.8C545-337.3,538.2-337.1,534.8-335.6Z" transform="translate(11.195 1283.418)"/>
    </g>
  </g>
</svg>
